<svg width="1200" height="627" viewBox="0 0 1200 627" fill="none" xmlns="http://www.w3.org/2000/svg">
<rect width="1200" height="627" fill="#EDEDED"/>
<path d="M282.102 354V284.182H300.557V296.5H301.375C302.83 292.409 305.254 289.182 308.648 286.818C312.042 284.455 316.102 283.273 320.83 283.273C325.617 283.273 329.693 284.47 333.057 286.864C336.42 289.227 338.663 292.439 339.784 296.5H340.511C341.936 292.5 344.511 289.303 348.239 286.909C351.996 284.485 356.436 283.273 361.557 283.273C368.072 283.273 373.36 285.348 377.42 289.5C381.511 293.621 383.557 299.47 383.557 307.045V354H364.239V310.864C364.239 306.985 363.208 304.076 361.148 302.136C359.087 300.197 356.511 299.227 353.42 299.227C349.905 299.227 347.163 300.348 345.193 302.591C343.223 304.803 342.239 307.727 342.239 311.364V354H323.466V310.455C323.466 307.03 322.481 304.303 320.511 302.273C318.572 300.242 316.011 299.227 312.83 299.227C310.678 299.227 308.739 299.773 307.011 300.864C305.314 301.924 303.966 303.424 302.966 305.364C301.966 307.273 301.466 309.515 301.466 312.091V354H282.102ZM430.67 355.364C423.489 355.364 417.307 353.909 412.125 351C406.973 348.061 403.004 343.909 400.216 338.545C397.428 333.152 396.034 326.773 396.034 319.409C396.034 312.227 397.428 305.924 400.216 300.5C403.004 295.076 406.928 290.848 411.989 287.818C417.08 284.788 423.049 283.273 429.898 283.273C434.504 283.273 438.792 284.015 442.761 285.5C446.761 286.955 450.246 289.152 453.216 292.091C456.216 295.03 458.549 298.727 460.216 303.182C461.883 307.606 462.716 312.788 462.716 318.727V324.045H403.761V312.045H444.489C444.489 309.258 443.883 306.788 442.67 304.636C441.458 302.485 439.777 300.803 437.625 299.591C435.504 298.348 433.034 297.727 430.216 297.727C427.277 297.727 424.67 298.409 422.398 299.773C420.155 301.106 418.398 302.909 417.125 305.182C415.852 307.424 415.201 309.924 415.17 312.682V324.091C415.17 327.545 415.807 330.53 417.08 333.045C418.383 335.561 420.216 337.5 422.58 338.864C424.943 340.227 427.746 340.909 430.989 340.909C433.14 340.909 435.11 340.606 436.898 340C438.686 339.394 440.216 338.485 441.489 337.273C442.761 336.061 443.731 334.576 444.398 332.818L462.307 334C461.398 338.303 459.534 342.061 456.716 345.273C453.928 348.455 450.322 350.939 445.898 352.727C441.504 354.485 436.428 355.364 430.67 355.364ZM494.716 260.909V354H475.352V260.909H494.716ZM575.318 284.182L550.909 354H529.091L504.682 284.182H525.136L539.636 334.136H540.364L554.818 284.182H575.318ZM585.227 354V284.182H604.591V354H585.227ZM594.955 275.182C592.076 275.182 589.606 274.227 587.545 272.318C585.515 270.379 584.5 268.061 584.5 265.364C584.5 262.697 585.515 260.409 587.545 258.5C589.606 256.561 592.076 255.591 594.955 255.591C597.833 255.591 600.288 256.561 602.318 258.5C604.379 260.409 605.409 262.697 605.409 265.364C605.409 268.061 604.379 270.379 602.318 272.318C600.288 274.227 597.833 275.182 594.955 275.182ZM639.466 313.636V354H620.102V284.182H638.557V296.5H639.375C640.92 292.439 643.511 289.227 647.148 286.864C650.784 284.47 655.193 283.273 660.375 283.273C665.223 283.273 669.451 284.333 673.057 286.455C676.663 288.576 679.466 291.606 681.466 295.545C683.466 299.455 684.466 304.121 684.466 309.545V354H665.102V313C665.133 308.727 664.042 305.394 661.83 303C659.617 300.576 656.572 299.364 652.693 299.364C650.087 299.364 647.784 299.924 645.784 301.045C643.814 302.167 642.269 303.803 641.148 305.955C640.057 308.076 639.496 310.636 639.466 313.636ZM766.489 284.182V298.727H724.443V284.182H766.489ZM733.989 267.455H753.352V332.545C753.352 334.333 753.625 335.727 754.17 336.727C754.716 337.697 755.473 338.379 756.443 338.773C757.443 339.167 758.595 339.364 759.898 339.364C760.807 339.364 761.716 339.288 762.625 339.136C763.534 338.955 764.231 338.818 764.716 338.727L767.761 353.136C766.792 353.439 765.428 353.788 763.67 354.182C761.913 354.606 759.777 354.864 757.261 354.955C752.595 355.136 748.504 354.515 744.989 353.091C741.504 351.667 738.792 349.455 736.852 346.455C734.913 343.455 733.958 339.667 733.989 335.091V267.455ZM810.17 355.364C802.989 355.364 796.807 353.909 791.625 351C786.473 348.061 782.504 343.909 779.716 338.545C776.928 333.152 775.534 326.773 775.534 319.409C775.534 312.227 776.928 305.924 779.716 300.5C782.504 295.076 786.428 290.848 791.489 287.818C796.58 284.788 802.549 283.273 809.398 283.273C814.004 283.273 818.292 284.015 822.261 285.5C826.261 286.955 829.746 289.152 832.716 292.091C835.716 295.03 838.049 298.727 839.716 303.182C841.383 307.606 842.216 312.788 842.216 318.727V324.045H783.261V312.045H823.989C823.989 309.258 823.383 306.788 822.17 304.636C820.958 302.485 819.277 300.803 817.125 299.591C815.004 298.348 812.534 297.727 809.716 297.727C806.777 297.727 804.17 298.409 801.898 299.773C799.655 301.106 797.898 302.909 796.625 305.182C795.352 307.424 794.701 309.924 794.67 312.682V324.091C794.67 327.545 795.307 330.53 796.58 333.045C797.883 335.561 799.716 337.5 802.08 338.864C804.443 340.227 807.246 340.909 810.489 340.909C812.64 340.909 814.61 340.606 816.398 340C818.186 339.394 819.716 338.485 820.989 337.273C822.261 336.061 823.231 334.576 823.898 332.818L841.807 334C840.898 338.303 839.034 342.061 836.216 345.273C833.428 348.455 829.822 350.939 825.398 352.727C821.004 354.485 815.928 355.364 810.17 355.364ZM886.398 355.364C879.337 355.364 873.231 353.864 868.08 350.864C862.958 347.833 859.004 343.621 856.216 338.227C853.428 332.803 852.034 326.515 852.034 319.364C852.034 312.152 853.428 305.848 856.216 300.455C859.004 295.03 862.958 290.818 868.08 287.818C873.231 284.788 879.337 283.273 886.398 283.273C893.458 283.273 899.549 284.788 904.67 287.818C909.822 290.818 913.792 295.03 916.58 300.455C919.367 305.848 920.761 312.152 920.761 319.364C920.761 326.515 919.367 332.803 916.58 338.227C913.792 343.621 909.822 347.833 904.67 350.864C899.549 353.864 893.458 355.364 886.398 355.364ZM886.489 340.364C889.701 340.364 892.383 339.455 894.534 337.636C896.686 335.788 898.307 333.273 899.398 330.091C900.519 326.909 901.08 323.288 901.08 319.227C901.08 315.167 900.519 311.545 899.398 308.364C898.307 305.182 896.686 302.667 894.534 300.818C892.383 298.97 889.701 298.045 886.489 298.045C883.246 298.045 880.519 298.97 878.307 300.818C876.125 302.667 874.473 305.182 873.352 308.364C872.261 311.545 871.716 315.167 871.716 319.227C871.716 323.288 872.261 326.909 873.352 330.091C874.473 333.273 876.125 335.788 878.307 337.636C880.519 339.455 883.246 340.364 886.489 340.364Z" fill="#1A202C"/>
</svg>
